<?xml version="1.0" encoding="UTF-8" standalone="no"?>
<!DOCTYPE svg PUBLIC "-//W3C//DTD SVG 1.1//EN" "http://www.w3.org/Graphics/SVG/1.1/DTD/svg11.dtd">
<svg width="100%" height="100%" viewBox="0 0 512 512" version="1.1" xmlns="http://www.w3.org/2000/svg" xmlns:xlink="http://www.w3.org/1999/xlink" xml:space="preserve" xmlns:serif="http://www.serif.com/" style="fill-rule:evenodd;clip-rule:evenodd;stroke-linejoin:round;stroke-miterlimit:2;">
    <g transform="matrix(1,0,0,1,-568.258,-1321.13)">
        <g transform="matrix(1,0,0,1,568.258,1321.13)">
            <g transform="matrix(-0.727305,6.73622e-17,-6.73622e-17,-0.727305,650.596,329.951)">
                <path d="M297.608,148.867C356.689,148.867 404.655,196.833 404.655,255.914C404.655,314.995 311.16,453.662 297.608,453.662C284.055,453.662 190.561,314.995 190.561,255.914C190.561,196.833 238.527,148.867 297.608,148.867Z" style="fill:rgb(226,226,226);"/>
            </g>
            <g transform="matrix(-2.68106e-16,-0.7125,-0.7125,2.68106e-16,323.234,647.775)">
                <path d="M297.608,148.867C356.689,148.867 404.655,196.833 404.655,255.914C404.655,314.995 311.16,453.662 297.608,453.662C284.055,453.662 190.561,314.995 190.561,255.914C190.561,196.833 238.527,148.867 297.608,148.867Z" style="fill:rgb(170,170,170);"/>
            </g>
            <g transform="matrix(0.928647,-0.928647,-0.928647,-0.928647,177.012,732.927)">
                <path d="M297.608,148.867C356.689,148.867 404.655,196.833 404.655,255.914C404.655,314.995 311.16,453.662 297.608,453.662C284.055,453.662 190.561,314.995 190.561,255.914C190.561,196.833 238.527,148.867 297.608,148.867Z" style="fill:rgb(170,170,170);"/>
            </g>
            <g transform="matrix(0.658816,2.22028e-17,2.22028e-17,-0.658816,245.407,610.076)">
                <circle cx="297.608" cy="255.914" r="107.047" style="fill:rgb(93,93,93);"/>
            </g>
            <g transform="matrix(0.264502,8.91401e-18,8.91401e-18,-0.264502,277.57,427.148)">
                <circle cx="297.608" cy="255.914" r="107.047" style="fill:rgb(93,93,93);"/>
            </g>
        </g>
    </g>
</svg>
