<?xml version="1.0" encoding="UTF-8" standalone="no"?>
<!DOCTYPE svg PUBLIC "-//W3C//DTD SVG 1.1//EN" "http://www.w3.org/Graphics/SVG/1.1/DTD/svg11.dtd">
<svg width="100%" height="100%" viewBox="0 0 465 463" version="1.1" xmlns="http://www.w3.org/2000/svg" xmlns:xlink="http://www.w3.org/1999/xlink" xml:space="preserve" xmlns:serif="http://www.serif.com/" style="fill-rule:evenodd;clip-rule:evenodd;stroke-linejoin:round;stroke-miterlimit:2;">
    <g transform="matrix(1,0,0,1,-1161.82,-1340.45)">
        <g transform="matrix(1,0,0,1,1144.26,1321.13)">
            <g transform="matrix(1.04533,0,0,1.04533,-39.3173,4.23122)">
                <g transform="matrix(-0.775754,-2.45718e-16,-2.45718e-16,0.775754,473.351,-101.051)">
                    <path d="M297.608,148.867C356.689,148.867 404.655,196.833 404.655,255.914C404.655,314.995 311.16,453.662 297.608,453.662C284.055,453.662 190.561,314.995 190.561,255.914C190.561,196.833 238.527,148.867 297.608,148.867Z" style="fill:rgb(93,93,93);"/>
                </g>
                <g transform="matrix(0.387877,-0.671822,-0.671822,-0.387877,472.196,673.515)">
                    <path d="M297.608,148.867C356.689,148.867 404.655,196.833 404.655,255.914C404.655,314.995 311.16,453.662 297.608,453.662C284.055,453.662 190.561,314.995 190.561,255.914C190.561,196.833 238.527,148.867 297.608,148.867Z" style="fill:rgb(170,170,170);"/>
                </g>
                <g transform="matrix(-0.159084,-0.159084,-0.159084,0.159084,417.461,226.733)">
                    <path d="M297.608,148.867C356.689,148.867 404.655,196.833 404.655,255.914C404.655,314.995 311.16,453.662 297.608,453.662C284.055,453.662 190.561,314.995 190.561,255.914C190.561,196.833 238.527,148.867 297.608,148.867Z" style="fill:rgb(93,93,93);"/>
                </g>
                <g transform="matrix(0.224979,-1.38778e-17,0,-0.224979,175.525,441.236)">
                    <path d="M297.608,148.867C356.689,148.867 404.655,196.833 404.655,255.914C404.655,314.995 311.16,453.662 297.608,453.662C284.055,453.662 190.561,314.995 190.561,255.914C190.561,196.833 238.527,148.867 297.608,148.867Z" style="fill:rgb(93,93,93);"/>
                </g>
                <g transform="matrix(-0.159084,0.159084,0.159084,0.159084,134.227,95.3928)">
                    <path d="M297.608,148.867C356.689,148.867 404.655,196.833 404.655,255.914C404.655,314.995 311.16,453.662 297.608,453.662C284.055,453.662 190.561,314.995 190.561,255.914C190.561,196.833 238.527,148.867 297.608,148.867Z" style="fill:rgb(170,170,170);"/>
                </g>
                <g transform="matrix(-2.03364e-16,0.538028,0.538028,2.03364e-16,-25.6861,138.058)">
                    <path d="M297.608,148.867C356.689,148.867 404.655,196.833 404.655,255.914C404.655,314.995 311.16,453.662 297.608,453.662C284.055,453.662 190.561,314.995 190.561,255.914C190.561,196.833 238.527,148.867 297.608,148.867Z" style="fill:rgb(226,226,226);"/>
                </g>
            </g>
        </g>
    </g>
</svg>
